<svg xmlns="http://www.w3.org/2000/svg" xmlns:xlink="http://www.w3.org/1999/xlink" fill="none" version="1.1" width="172" height="38.06239700317383" viewBox="0 0 240 38.06239700317383">
	<defs>
		<clipPath id="master_svg0_125_3175">
			<rect x="0" y="0" width="372" height="38.06239700317383" rx="0"/>
		</clipPath>
	</defs>
	<g clip-path="url(#master_svg0_125_3175)">
		<g>
			<path d="M70.78550625,36.3806890625C67.68480625,36.3806890625,64.58400625,36.3806890625,61.48330625,36.3806890625C56.78789625,36.3806890625,53.06701625,33.2825890625,52.18109225,28.6796890625C52.09250075,28.1485890625,52.00390625,27.5288890625,52.00390625,26.9092890625C52.00390625,23.1915890625,52.00390625,19.3853890625,52.00390625,15.6676290625C52.00390625,10.9762190625,55.01605625,7.2584890625,59.62286625,6.3733210625C60.24300625,6.2848061625,60.95175625,6.1962890625,61.57189625,6.1962890625C67.77340625,6.1962890625,73.97480625,6.1962890625,80.08770625,6.1962890625C84.78310625,6.1962890625,88.50400625,9.2943890625,89.47850625000001,13.8972890625C89.56710625,14.4283890625,89.65570625000001,15.0480090625,89.65570625000001,15.5791090625C89.65570625000001,19.3853890625,89.65570625000001,23.1915890625,89.65570625000001,26.9977890625C89.65570625000001,32.3088890625,85.58050625,36.3806890625,80.26490625,36.3806890625C77.07560624999999,36.4691890625,73.88630625,36.3806890625,70.78550625,36.3806890625ZM70.78550625,31.2466890625C73.88630625,31.2466890625,76.98700625000001,31.2466890625,80.08770625,31.2466890625C82.56830625,31.2466890625,84.34020625,29.4762890625,84.42880625000001,26.9977890625C84.42880625000001,23.1915890625,84.42880625000001,19.3853890625,84.42880625000001,15.5791090625C84.42880625000001,13.100629062500001,82.65690624999999,11.3302890625,80.17630625,11.3302890625C73.97480625,11.3302890625,67.68480625,11.3302890625,61.48330625,11.3302890625C59.00271625,11.3302890625,57.23086625,13.100629062500001,57.14227625,15.6676290625C57.14227625,19.3853890625,57.14227625,23.1915890625,57.14227625,26.9092890625C57.14227625,29.4762890625,58.91412625,31.2466890625,61.48330625,31.2466890625C64.58400625,31.2466890625,67.68480625,31.2466890625,70.78550625,31.2466890625Z" fill="#107E42" fill-opacity="1" style="mix-blend-mode:passthrough"/>
		</g>
		<g>
			<path d="M25.781381250000003,8.85172C26.57878125,10.445,27.28748125,11.9498,28.08478125,13.5431C28.17338125,13.5431,28.261981249999998,13.4546,28.350581249999998,13.2776C30.29958125,11.5958,32.51448125,10.7106,35.08358125,10.6221C37.209881249999995,10.6221,38.45008125,9.2943,38.45008125,7.16989C38.45008125,6.28472,38.45008125,5.31103,38.45008125,4.42586C38.45008125,4.16031,38.45008125,3.98327,38.09578125,3.98327C35.52658125,4.07179,32.86878125,3.80624,30.29958125,4.24883C23.56658125,5.48807,18.42822125,11.3302,18.16244125,18.2345C18.07385125,20.8901,18.16244125,23.4571,18.16244125,26.1126C18.16244125,26.6437,18.42822125,26.5552,18.78259125,26.5552C19.13696125,26.5552,19.40274125,26.5552,19.40274125,26.1126C19.40274125,23.7226,19.40274125,21.4212,19.40274125,19.0312C19.40274125,18.8542,19.40274125,18.7656,19.40274125,18.5886L23.477991250000002,18.5886L23.477991250000002,30.6269L14.17578125,30.6269C14.17578125,30.4499,14.17578125,30.2729,14.17578125,30.0958C14.17578125,26.2896,14.17578125,22.5719,14.17578125,18.7656C14.17578125,9.38282,20.99740125,1.50479,30.29958125,0.0885175C30.83118125,0.0885172,31.27418125,0,31.80568125,0C35.34938125,0,38.89308125,0,42.348181249999996,0C42.436781249999996,0,42.525381249999995,0,42.613981249999995,0C42.613981249999995,0.177034,42.70258125,0.265552,42.70258125,0.354069C42.70258125,2.65552,42.70258125,4.95696,42.70258125,7.25841C42.613981249999995,10.8876,40.31058125,13.8087,36.76688125,14.5168C36.32388125,14.6053,35.880981250000005,14.6939,35.34938125,14.6939C31.71708125,14.7824,28.97078125,17.5264,28.97078125,21.1556C28.97078125,26.2011,28.97078125,31.3351,28.97078125,36.3806C28.97078125,37.0887,28.97078125,37.0887,28.261981249999998,37.0887C23.83237125,37.0887,19.314151250000002,37.0887,14.88452225,37.0887L14.17578125,37.0887L14.17578125,32.9284L24.80688125,32.9284C24.80688125,32.6628,24.80688125,32.4858,24.80688125,32.2203C24.80688125,28.06,24.80688125,23.8996,24.80688125,19.6508C24.80688125,16.9953,24.27528125,14.4283,22.94644125,12.0383C22.85785125,11.8613,22.85785125,11.5958,22.94644125,11.5072C23.38940125,10.8876,24.89548125,9.38282,25.781381250000003,8.85172Z" fill="#107E42" fill-opacity="1" style="mix-blend-mode:passthrough"/>
		</g>
		<g>
			<path d="M99.666015625,12.215429921875L99.666015625,6.992919921875C100.108978625,6.992919921875,100.551940625,6.992919921875,100.906315625,6.992919921875C109.942715625,6.992919921875,118.979215625,6.992919921875,128.015615625,6.992919921875C130.053215625,6.992919921875,131.913715625,7.524022921875,133.685515625,8.497709921875C135.457415625,9.471399921875,136.431915625,10.976189921875001,136.697715625,12.835049921875001C136.963415625,14.693919921875,136.963415625,16.641289921875,136.786315625,18.500119921874997C136.60911562500002,20.801619921875,135.103015625,22.217919921875,133.065415625,23.014519921875C131.559315625,23.634119921875,129.964615625,23.899719921875,128.281415625,23.899719921875C121.105415625,23.899719921875,113.929415625,23.899719921875,106.753415625,23.899719921875C105.867495625,23.899719921875,105.070155625,24.696319921875,105.070155625,25.581519921875C105.070155625,28.945219921875,105.070155625,32.220319921875,105.070155625,35.584019921875L105.070155625,36.115119921875L99.666015625,36.115119921875L99.666015625,19.208319921875002L100.286160625,19.208319921875002C110.119915625,19.208319921875002,120.042315625,19.208319921875002,129.876115625,19.208319921875002C130.762015625,19.208319921875002,131.470715625,18.500119921874997,131.470715625,17.615019921875C131.470715625,16.287229921875,131.470715625,14.959469921875,131.470715625,13.631709921875C131.470715625,13.012089921874999,130.673415625,12.215439921875,130.053215625,12.215439921875C120.219515625,12.215439921875,110.297115625,12.215439921875,100.463349625,12.215439921875C100.197569625,12.215429921875,99.931795625,12.215429921875,99.666015625,12.215429921875Z" fill="#107E42" fill-opacity="1" style="mix-blend-mode:passthrough"/>
		</g>
		<g>
			<path d="M195.43411875,30.80405L195.43411875,36.02655L194.90261875,36.02655C185.68901875,36.02655,176.47531874999999,36.02655,167.26173875,36.02655C164.86973875,36.02655,162.74350875,35.406949999999995,160.70589875,34.07915C159.37700875,33.194050000000004,158.66826575,31.777749999999997,158.31390075,30.27295C158.13671875,29.74185,158.13671875,29.12225,158.13671875,28.502589999999998C158.13671875,25.493009999999998,158.13671875,22.48342,158.13671875,19.473836C158.13671875,19.296801,158.13671875,19.208285,158.13671875,19.03125L195.43411875,19.03125L195.43411875,23.81118L194.72541875000002,23.81118C184.80301875,23.81118,174.96931875,23.81118,165.04692875,23.81118C164.24959875,23.81118,163.62943875,24.430799999999998,163.62943875,25.22745C163.62943875,26.643729999999998,163.62943875,28.060000000000002,163.62943875,29.47625C163.62943875,30.09585,164.33817875,30.80405,164.95832875,30.80405C174.88071875,30.80405,184.80301875,30.80405,194.72541875000002,30.80405L195.43411875,30.80405Z" fill="#107E42" fill-opacity="1" style="mix-blend-mode:passthrough"/>
		</g>
		<g>
			<path d="M195.43404375,6.81591796875L195.43404375,11.94991796875L158.40234375,11.94991796875C158.75670875,10.88770796875,159.28826875,9.91401796875,160.17419375,9.20587796875C162.21182375,7.52405596875,164.69242375,6.81591796875,167.26159375,6.81591796875C176.47524375,6.81591796875,185.60024375,6.81591796875,194.81384375,6.81591796875C195.07964375,6.81591796875,195.25684375,6.81591796875,195.43404375,6.81591796875Z" fill="#107E42" fill-opacity="1" style="mix-blend-mode:passthrough"/>
		</g>
		<g>
			<path d="M12.1372,16.9068C11.517,16.4642,10.8969,15.9331,10.2767,15.579C9.30221,14.9594,8.2391,14.7824,7.0874,14.7824C3.63229,14.6939,0.70874,12.3039,0,8.94024C0,8.7632,0,8.58617,0,8.32062C0,5.6651,0,3.00958,0,0.354068C0,0.265552,0,0.177034,0,0L0.531555,0C3.89807,0,7.26459,0,10.6311,0C13.8204,0.0885172,16.744,1.15072,19.4018,2.74403C18.4272,3.80624,17.4527,4.77993,16.4782,5.84213C15.0607,5.134,13.5547,4.51438,11.96,4.24883C10.7197,4.07179,9.39081,4.07179,8.15051,3.98327C6.91022,3.98327,5.75851,3.98327,4.51822,3.98327C4.16385,3.98327,3.98666,4.07179,4.07526,4.42586C4.07526,5.31103,4.07526,6.28472,4.07526,7.16989C4.07526,9.2943,5.31555,10.6221,7.35318,10.6221C9.21362,10.6221,10.9855,11.1532,12.6687,12.1269C13.0231,12.3039,13.1117,12.5694,13.0231,12.9235C12.7573,14.1628,12.4915,15.402,12.3144,16.6412C12.1372,16.7297,12.1372,16.8183,12.1372,16.9068Z" fill="#107E42" fill-opacity="1" style="mix-blend-mode:passthrough"/>
		</g>
		<g>
			<path d="M150.96115625,32.66289140625C150.96115625,34.61027140625,149.36648625,36.29210140625,147.32885625,36.20358140625C145.37982625,36.20358140625,143.78515625,34.52175140625,143.78515625,32.57438140625C143.78515625,30.62700140625,145.37982625,29.03369140625,147.32885625,29.03369140625C149.36649625,29.03368802959,150.96115625,30.62700140625,150.96115625,32.66289140625Z" fill="#107E42" fill-opacity="1" style="mix-blend-mode:passthrough"/>
		</g>
	</g>
	</svg>